<?xml version="1.0" encoding="UTF-8"?>
<svg xmlns="http://www.w3.org/2000/svg" width="1312" height="320" viewBox="0 0 1312 320" fill="none">
  
  <rect x="64" y="104" width="56" height="56" fill="#e05a5a"/><rect x="136" y="104" width="56" height="56" fill="#f5cc42"/><rect x="208" y="104" width="56" height="56" fill="#22c0ba"/><rect x="280" y="104" width="56" height="56" fill="#9060ee"/><rect x="64" y="176" width="56" height="56" fill="#f5a03a"/><rect x="136" y="176" width="56" height="56" fill="#35be7a"/><rect x="208" y="176" width="56" height="56" fill="#3d7ced"/><rect x="280" y="176" width="56" height="56" fill="#e0609a"/>
  <g color="#f7f5ef">
    <path fill="currentColor" d="M440.54 142.21L440.54 142.21L440.54 104.80Q440.54 98.75 442.78 96.40Q445.02 94.05 453.54 94.05L453.54 94.05Q466.98 94.05 473.92 101.33Q480.86 108.61 480.86 122.50L480.86 122.50Q480.86 135.26 472.91 142.21Q464.96 149.15 450.40 149.15L450.40 149.15L447.49 149.15Q445.02 149.15 443.57 148.93Q442.11 148.70 441.44 148.03Q440.77 147.36 440.66 146.02Q440.54 144.67 440.54 142.21ZM480.42 150.72L480.42 150.72Q491.84 146.46 497.10 139.41Q502.37 132.35 502.37 121.15L502.37 121.15Q502.37 103.01 488.37 94.83Q474.37 86.66 446.14 86.66L446.14 86.66Q404.26 86.66 404.26 93.60L404.26 93.60Q404.26 96.74 406.94 96.74L406.94 96.74Q408.74 96.74 410.64 96.18Q412.54 95.62 414.78 95.62L414.78 95.62Q420.83 95.62 420.83 104.35L420.83 104.35L420.83 206.94Q420.83 208.74 420.72 209.86Q420.61 210.98 420.61 211.42L420.61 211.42Q420.61 215.90 418.82 218.48Q417.02 221.06 411.87 221.06L411.87 221.06Q406.50 221.06 406.50 224.42L406.50 224.42Q406.50 228 410.75 228L410.75 228Q412.99 228 417.14 227.33Q421.28 226.66 427.55 226.66L427.55 226.66Q435.84 226.66 445.81 228.34Q455.78 230.02 467.87 230.02L467.87 230.02Q477.28 230.02 485.01 226.99Q492.74 223.97 498.22 218.48Q503.71 212.99 506.74 205.49Q509.76 197.98 509.76 189.02L509.76 189.02Q509.76 173.34 502.14 163.49Q494.53 153.63 480.42 150.72ZM443.46 156.32L443.46 156.32L457.34 156.32Q472.13 156.32 479.74 164.94Q487.36 173.57 487.36 187.90L487.36 187.90Q487.36 204.26 479.74 213.10Q472.13 221.95 458.69 221.95L458.69 221.95Q448.61 221.95 444.58 217.81Q440.54 213.66 440.54 205.15L440.54 205.15L440.54 159.23Q440.54 156.32 443.46 156.32ZM542.24 86.43L542.24 86.43Q538.21 86.43 535.30 90.24Q532.38 94.05 532.38 98.75L532.38 98.75Q532.38 103.46 535.30 107.26Q538.21 111.07 542.24 111.07L542.24 111.07Q546.27 111.07 549.18 107.26Q552.10 103.46 552.10 98.75L552.10 98.75Q552.10 94.05 549.18 90.24Q546.27 86.43 542.24 86.43ZM550.75 211.20L550.75 129.44Q550.75 124.74 548.51 124.74L548.51 124.74Q547.62 124.74 546.61 125.74Q545.60 126.75 544.03 128.32Q542.46 129.89 540.11 131.90Q537.76 133.92 534.40 135.94L534.40 135.94Q528.80 139.07 525.78 140.64Q522.75 142.21 522.75 144.67L522.75 144.67Q522.75 146.91 524.21 147.02Q525.66 147.14 527.34 147.70Q529.02 148.26 530.48 150.27Q531.94 152.29 531.94 158.34L531.94 158.34L531.94 211.20Q531.94 215.68 531.38 217.58Q530.82 219.49 528.35 220.83L528.35 220.83Q527.01 221.50 525.89 221.62Q524.77 221.73 523.76 221.95Q522.75 222.18 522.19 222.85Q521.63 223.52 521.63 225.09L521.63 225.09Q521.63 228.90 524.99 228.90L524.99 228.90Q527.46 228.90 531.49 228.11Q535.52 227.33 541.34 227.33L541.34 227.33Q546.72 227.33 551.42 228.11Q556.13 228.90 559.49 228.90L559.49 228.90Q563.52 228.90 563.52 225.31L563.52 225.31Q563.52 223.74 562.74 223.07Q561.95 222.40 560.72 222.06Q559.49 221.73 557.81 221.50Q556.13 221.28 554.34 220.38L554.34 220.38Q552.32 219.26 551.54 217.25Q550.75 215.23 550.75 211.20L550.75 211.20ZM598.69 126.53L598.69 112.86Q598.69 110.40 598.35 108.94Q598.02 107.49 596.45 107.49L596.45 107.49Q594.43 107.49 591.86 111.97Q589.28 116.45 583.90 122.72L583.90 122.72Q580.77 126.08 578.19 128.10Q575.62 130.11 573.60 131.46Q571.58 132.80 570.46 133.92Q569.34 135.04 569.34 136.38L569.34 136.38Q569.34 139.30 573.38 139.30L573.38 139.30L577.41 139.30Q579.65 139.30 580.10 141.20Q580.54 143.10 580.54 146.24L580.54 146.24L579.65 194.40L579.65 203.81Q579.65 232.26 597.57 232.26L597.57 232.26Q602.72 232.26 607.31 230.35Q611.90 228.45 615.38 225.76Q618.85 223.07 620.86 220.38Q622.88 217.70 622.88 216.13L622.88 216.13Q622.88 212.99 620.64 212.99L620.64 212.99Q619.52 212.99 618.29 213.89Q617.06 214.78 615.49 216.02Q613.92 217.25 612.02 218.14Q610.11 219.04 607.65 219.04L607.65 219.04Q602.50 219.04 600.59 214.22Q598.69 209.41 598.69 198.88L598.69 198.88L598.69 142.21Q598.69 139.30 601.38 139.30L601.38 139.30L618.40 139.30Q620.42 139.30 620.86 138.62Q621.31 137.95 621.31 136.16L621.31 136.16L621.31 131.68Q621.31 130.34 620.86 129.89Q620.42 129.44 618.40 129.44L618.40 129.44L601.60 129.44Q598.69 129.44 598.69 126.53L598.69 126.53ZM658.94 126.53L658.94 115.10Q658.94 97.41 661.97 88.67Q664.99 79.94 669.47 79.94L669.47 79.94Q671.71 79.94 673.50 82.40Q675.30 84.86 677.20 87.78Q679.10 90.69 680.90 93.15Q682.69 95.62 684.93 95.62L684.93 95.62Q686.27 95.62 687.73 93.94Q689.18 92.26 690.42 90.02Q691.65 87.78 692.43 85.42Q693.22 83.07 693.22 81.50L693.22 81.50Q693.22 78.37 688.40 75.46Q683.58 72.54 677.09 72.54L677.09 72.54Q670.37 72.54 664.21 75.34Q658.05 78.14 653.12 83.41Q648.19 88.67 645.06 96.40Q641.92 104.13 641.25 113.76L641.25 113.76L640.35 125.18Q639.90 127.87 637.89 128.99L637.89 128.99L633.86 131.01Q629.60 133.25 629.60 135.26L629.60 135.26Q629.60 136.38 630.61 137.39Q631.62 138.40 632.96 138.40L632.96 138.40L636.99 138.40Q639.90 138.40 639.90 141.31L639.90 141.31L639.90 210.98Q639.90 214.78 639.01 216.80Q638.11 218.82 634.98 220.38L634.98 220.38Q630.94 222.18 628.48 222.06Q626.02 221.95 626.02 225.09L626.02 225.09Q626.02 228.67 630.27 228.67L630.27 228.67Q634.08 228.67 638.78 228Q643.49 227.33 649.09 227.33L649.09 227.33Q654.69 227.33 659.84 228Q664.99 228.67 669.47 228.67L669.47 228.67Q674.40 228.67 674.40 225.54L674.40 225.54Q674.40 223.74 673.62 223.07Q672.83 222.40 671.26 222.06Q669.70 221.73 667.57 221.39Q665.44 221.06 662.75 219.71L662.75 219.71Q660.29 218.59 659.50 216.69Q658.72 214.78 658.72 210.98L658.72 210.98L658.72 141.31Q658.72 138.40 661.41 138.40L661.41 138.40L678.21 138.40Q680.45 138.40 680.78 137.39Q681.12 136.38 681.12 134.14L681.12 134.14L681.12 133.02Q681.12 131.23 680.67 130.34Q680.22 129.44 678.21 129.44L678.21 129.44L661.63 129.44Q658.94 129.44 658.94 126.53L658.94 126.53ZM703.07 86.43L703.07 86.43Q699.04 86.43 696.13 90.24Q693.22 94.05 693.22 98.75L693.22 98.75Q693.22 103.46 696.13 107.26Q699.04 111.07 703.07 111.07L703.07 111.07Q707.10 111.07 710.02 107.26Q712.93 103.46 712.93 98.75L712.93 98.75Q712.93 94.05 710.02 90.24Q707.10 86.43 703.07 86.43ZM711.58 211.20L711.58 129.44Q711.58 124.74 709.34 124.74L709.34 124.74Q708.45 124.74 707.44 125.74Q706.43 126.75 704.86 128.32Q703.30 129.89 700.94 131.90Q698.59 133.92 695.23 135.94L695.23 135.94Q689.63 139.07 686.61 140.64Q683.58 142.21 683.58 144.67L683.58 144.67Q683.58 146.91 685.04 147.02Q686.50 147.14 688.18 147.70Q689.86 148.26 691.31 150.27Q692.77 152.29 692.77 158.34L692.77 158.34L692.77 211.20Q692.77 215.68 692.21 217.58Q691.65 219.49 689.18 220.83L689.18 220.83Q687.84 221.50 686.72 221.62Q685.60 221.73 684.59 221.95Q683.58 222.18 683.02 222.85Q682.46 223.52 682.46 225.09L682.46 225.09Q682.46 228.90 685.82 228.90L685.82 228.90Q688.29 228.90 692.32 228.11Q696.35 227.33 702.18 227.33L702.18 227.33Q707.55 227.33 712.26 228.11Q716.96 228.90 720.32 228.90L720.32 228.90Q724.35 228.90 724.35 225.31L724.35 225.31Q724.35 223.74 723.57 223.07Q722.78 222.40 721.55 222.06Q720.32 221.73 718.64 221.50Q716.96 221.28 715.17 220.38L715.17 220.38Q713.15 219.26 712.37 217.25Q711.58 215.23 711.58 211.20L711.58 211.20ZM770.72 157.89L770.72 157.89L756.16 157.89Q753.47 157.89 753.47 155.87L753.47 155.87L753.47 155.42L754.14 151.84Q755.94 142.66 761.76 136.61Q767.58 130.56 775.42 130.56L775.42 130.56Q782.59 130.56 787.18 135.26Q791.78 139.97 791.78 145.57L791.78 145.57Q791.78 152.96 786.74 155.42Q781.70 157.89 770.72 157.89ZM754.37 164.83L803.87 164.83Q807.90 164.83 809.70 163.94Q811.49 163.04 811.49 160.13L811.49 160.13Q811.49 152.96 808.91 146.69Q806.34 140.42 801.63 135.71Q796.93 131.01 790.21 128.21Q783.49 125.41 775.42 125.41L775.42 125.41Q766.02 125.41 758.06 129.22Q750.11 133.02 744.29 139.97Q738.46 146.91 735.22 156.88Q731.97 166.85 731.97 179.17L731.97 179.17Q731.97 191.49 734.88 201.34Q737.79 211.20 743.17 218.14Q748.54 225.09 756.05 228.78Q763.55 232.48 772.74 232.48L772.74 232.48Q781.47 232.48 788.42 229.57Q795.36 226.66 800.40 222.74Q805.44 218.82 808.13 214.78Q810.82 210.75 810.82 208.29L810.82 208.29Q810.82 205.82 809.02 205.82L809.02 205.82Q808.35 205.82 806.67 207.84Q804.99 209.86 801.97 212.32Q798.94 214.78 794.35 216.80Q789.76 218.82 783.49 218.82L783.49 218.82Q769.38 218.82 760.53 206.72Q751.68 194.62 751.68 173.79L751.68 173.79L751.68 168.42Q751.68 166.18 752.13 165.50Q752.58 164.83 754.37 164.83L754.37 164.83ZM852.26 210.98L852.26 92.03Q852.26 87.33 852.59 83.52Q852.93 79.71 852.93 76.80L852.93 76.80Q852.93 74.78 852.48 73.66Q852.03 72.54 850.24 72.54L850.24 72.54Q849.12 72.54 845.42 75.12Q841.73 77.70 833.89 80.61L833.89 80.61Q829.86 82.18 826.83 82.96Q823.81 83.74 823.81 86.21L823.81 86.21Q823.81 87.55 825.26 88.22Q826.72 88.90 828.62 89.57Q830.53 90.24 831.98 91.58Q833.44 92.93 833.44 95.84L833.44 95.84L833.44 212.32Q833.44 215.68 832.77 217.58Q832.10 219.49 828.96 220.61L828.96 220.61Q825.38 221.95 822.91 221.95L822.91 221.95Q820.67 221.95 820.67 225.09L820.67 225.09Q820.67 228.67 824.70 228.67L824.70 228.67Q827.84 228.67 832.43 228Q837.02 227.33 842.85 227.33L842.85 227.33Q848.45 227.33 853.38 228Q858.30 228.67 862.11 228.67L862.11 228.67Q866.59 228.67 866.59 225.54L866.59 225.54Q866.59 223.52 865.70 222.74Q864.80 221.95 863.34 221.73Q861.89 221.50 860.10 221.39Q858.30 221.28 856.51 220.38L856.51 220.38Q852.26 218.37 852.26 210.98L852.26 210.98ZM957.98 207.84L957.98 92.03Q957.98 87.55 958.32 83.74Q958.66 79.94 958.66 76.80L958.66 76.80Q958.66 74.78 958.21 73.66Q957.76 72.54 955.97 72.54L955.97 72.54Q954.85 72.54 951.15 75.12Q947.46 77.70 939.62 80.61L939.62 80.61Q935.36 82.18 932.34 82.96Q929.31 83.74 929.31 86.21L929.31 86.21Q929.31 87.55 930.88 88.22Q932.45 88.90 934.24 89.68Q936.03 90.46 937.60 91.81Q939.17 93.15 939.17 96.06L939.17 96.06L939.17 125.63Q939.17 128.99 937.82 128.99L937.82 128.99L937.38 128.99L934.46 127.87Q932 126.98 927.97 126.19Q923.94 125.41 919.46 125.41L919.46 125.41Q910.05 125.41 901.76 129.44Q893.47 133.47 887.31 140.75Q881.15 148.03 877.46 158.22Q873.76 168.42 873.76 180.51L873.76 180.51Q873.76 192.38 877.01 201.90Q880.26 211.42 885.97 218.14Q891.68 224.86 899.07 228.56Q906.46 232.26 914.98 232.26L914.98 232.26Q920.58 232.26 924.83 230.69Q929.09 229.12 932.11 227.22Q935.14 225.31 936.93 223.74Q938.72 222.18 939.17 222.18L939.17 222.18Q939.84 222.18 940.29 223.63Q940.74 225.09 941.18 226.99Q941.63 228.90 942.42 230.35Q943.20 231.81 944.32 231.81L944.32 231.81Q946.11 231.81 950.93 228.90Q955.74 225.98 964.03 223.07L964.03 223.07Q966.50 222.18 968.06 221.17Q969.63 220.16 969.63 216.35L969.63 216.35Q969.63 214.56 968.96 213.55Q968.29 212.54 967.84 212.54L967.84 212.54Q966.72 212.54 965.04 214.67Q963.36 216.80 961.12 216.80L961.12 216.80Q957.98 216.80 957.98 207.84L957.98 207.84ZM939.17 165.50L939.17 165.50L939.17 203.36Q939.17 207.84 938.94 211.20Q938.72 214.56 937.38 217.02Q936.03 219.49 933.34 220.72Q930.66 221.95 925.95 221.95L925.95 221.95Q911.17 221.95 902.66 210.86Q894.14 199.78 894.14 179.84L894.14 179.84Q894.14 168.86 896.38 159.90Q898.62 150.94 902.54 144.78Q906.46 138.62 911.50 135.26Q916.54 131.90 922.37 131.90L922.37 131.90Q928.42 131.90 931.78 134.26Q935.14 136.61 936.82 140.98Q938.50 145.34 938.83 151.50Q939.17 157.66 939.17 165.50Z"/>
  </g>
</svg>
